<?xml version="1.0" encoding="utf-8"?>
<!-- Generator: Adobe Illustrator 26.3.1, SVG Export Plug-In . SVG Version: 6.00 Build 0)  -->
<svg version="1.1" id="Storekey" xmlns="http://www.w3.org/2000/svg" xmlns:xlink="http://www.w3.org/1999/xlink" x="0px" y="0px"
	 viewBox="0 0 1084.1 148" style="enable-background:new 0 0 1084.1 148;" xml:space="preserve">
<style type="text/css">
	.st0{fill:#FFFFFF;}
	.st1{fill:#79F47E;}
</style>
<g id="STOREKEY">
	<polygon id="Y" class="st0" points="1045.2,98.7 1084.1,0 1043.5,0 1026.3,43.7 1009.1,0 968.4,0 1007.4,99 1007.4,148 1045.2,148 
			"/>
	<polygon id="E" class="st0" points="953.4,37.8 953.4,0 837.8,0 837.8,148 953.4,148 953.4,110.2 875.6,110.2 875.6,92.9 
		953.4,92.9 953.4,55.1 875.6,55.1 875.6,37.8 	"/>
	<polygon id="K" class="st0" points="822.8,0 778.2,0 744.9,53.3 744.9,0 707.1,0 707.1,148 744.9,148 744.9,94.7 778.2,148 
		822.8,148 776.5,74 	"/>
	<polygon id="E_00000095297189532966603820000008988045996790430087_" class="st0" points="692.1,37.8 692.1,0 576.5,0 576.5,148 
		692.1,148 692.1,110.2 614.3,110.2 614.3,92.9 692.1,92.9 692.1,55.1 614.3,55.1 614.3,37.8 	"/>
	<path id="R" class="st0" d="M559.6,55.1c0-30.4-24.7-55.1-55.1-55.1v0H486v37.8h18.5c9.6,0,17.3,7.7,17.3,17.3s-7.7,17.3-17.3,17.3
		H486v32.3l27.6,43.3h46l-28.8-44.5C548,94.2,559.6,76,559.6,55.1z"/>
	<polygon id="_x31_" class="st1" points="414.3,0 414.3,37.8 433.2,37.8 433.2,148 471,148 471,0 	"/>
	<path id="_x30_" class="st1" d="M330.3,0c-40.9,0-74,33.1-74,74s33.1,74,74,74s74-33.1,74-74S371.2,0,330.3,0z M330.3,110.2
		c-20,0-36.2-16.2-36.2-36.2c0-20,16.2-36.2,36.2-36.2c20,0,36.2,16.2,36.2,36.2C366.5,94,350.3,110.2,330.3,110.2z"/>
	<polygon id="T" class="st0" points="246.3,0 130.7,0 130.7,37.8 170.4,37.8 170.4,148 208.2,148 208.2,37.8 246.3,37.8 	"/>
	<path id="S" class="st0" d="M51.8,0C26.1,0,5.3,20.8,5.3,46.4c0,25.6,20.8,46.4,46.4,46.4v0h12.2c4.8,0,8.6,3.9,8.6,8.6
		c0,4.8-3.9,8.6-8.6,8.6h0H0V148h63.9c25.7,0,46.4-20.8,46.4-46.4c0-25.6-20.8-46.4-46.4-46.4v0H51.7c-4.8,0-8.6-3.9-8.6-8.6
		c0-4.8,3.9-8.6,8.6-8.6h0h63.9V0H51.8z"/>
</g>
</svg>
